<svg width="51" height="40" viewBox="0 0 51 40" fill="none" xmlns="http://www.w3.org/2000/svg">
<path d="M43.1851 3.35007C39.8418 1.7645 36.3048 0.637879 32.6677 0C32.2146 0.8302 31.6853 1.94682 31.3203 2.83516C27.3988 2.23748 23.5133 2.23748 19.6639 2.83516C19.299 1.94702 18.7578 0.8302 18.3005 0C14.6598 0.638173 11.1198 1.76766 7.77489 3.35835C1.11877 13.5535 -0.68566 23.4951 0.216454 33.296C4.63123 36.6376 8.9096 38.6676 13.1159 39.996C14.1612 38.5389 15.0853 36.9962 15.8786 35.3839C14.3683 34.8012 12.9124 34.083 11.5281 33.2379C11.8924 32.9642 12.2481 32.679 12.5947 32.3827C20.983 36.3595 30.0973 36.3595 38.3856 32.3827C38.7337 32.677 39.0893 32.9622 39.452 33.2379C38.0655 34.0852 36.6069 34.8048 35.0936 35.3882C35.8914 37.007 36.8138 38.5511 37.8563 40C42.0666 38.6718 46.3489 36.6419 50.7637 33.296C51.8223 21.9344 48.9555 12.0838 43.1851 3.34987V3.35007ZM17.0215 27.2686C14.5033 27.2686 12.4382 24.8858 12.4382 21.9843C12.4382 19.0827 14.4593 16.6958 17.0215 16.6958C19.5838 16.6958 21.6487 19.0785 21.6047 21.9843C21.6087 24.8858 19.5838 27.2686 17.0215 27.2686ZM33.9587 27.2686C31.4405 27.2686 29.3756 24.8858 29.3756 21.9843C29.3756 19.0827 31.3965 16.6958 33.9587 16.6958C36.521 16.6958 38.586 19.0785 38.5419 21.9843C38.5419 24.8858 36.521 27.2686 33.9587 27.2686Z" fill="black"/>
</svg>
