<svg width="41" height="40" viewBox="0 0 41 40" fill="none" xmlns="http://www.w3.org/2000/svg">
<path fill-rule="evenodd" clip-rule="evenodd" d="M20.4336 0C9.38359 0 0.433594 9.17638 0.433594 20.5059C0.433594 29.5797 6.15859 37.2438 14.1086 39.9608C15.1086 40.1403 15.4836 39.5251 15.4836 38.9868C15.4836 38.4998 15.4586 36.8849 15.4586 35.1676C10.4336 36.116 9.13359 33.9116 8.73359 32.7581C8.50859 32.1686 7.53359 30.3487 6.68359 29.8617C5.98359 29.4772 4.98359 28.5288 6.65859 28.5032C8.23359 28.4775 9.35859 29.9898 9.73359 30.605C11.5336 33.7065 14.4086 32.835 15.5586 32.2968C15.7336 30.9639 16.2586 30.0667 16.8336 29.5541C12.3836 29.0414 7.73359 27.2728 7.73359 19.4293C7.73359 17.1993 8.50859 15.3538 9.78359 13.9184C9.58359 13.4057 8.88359 11.3039 9.98359 8.48431C9.98359 8.48431 11.6586 7.94603 15.4836 10.5862C17.0836 10.1248 18.7836 9.89408 20.4836 9.89408C22.1836 9.89408 23.8836 10.1248 25.4836 10.5862C29.3086 7.92039 30.9836 8.48431 30.9836 8.48431C32.0836 11.3039 31.3836 13.4057 31.1836 13.9184C32.4586 15.3538 33.2336 17.1737 33.2336 19.4293C33.2336 27.2984 28.5586 29.0414 24.1086 29.5541C24.8336 30.1949 25.4586 31.4253 25.4586 33.3477C25.4586 36.0903 25.4336 38.2947 25.4336 38.9868C25.4336 39.5251 25.8086 40.1659 26.8086 39.9608C30.7789 38.5865 34.2289 35.9702 36.673 32.4802C39.1172 28.9903 40.4324 24.8023 40.4336 20.5059C40.4336 9.17638 31.4836 0 20.4336 0Z" fill="black"/>
</svg>
