<svg width="354" height="411" viewBox="0 0 354 411" fill="none" xmlns="http://www.w3.org/2000/svg">
<path fill-rule="evenodd" clip-rule="evenodd" d="M193.669 29.4058C196.517 29.9828 199.368 30.652 202.217 31.4154C205.066 32.1789 207.869 33.0246 210.625 33.9492L212.742 27.6385L216.977 15.0173L219.095 8.70665C215.818 7.60733 212.489 6.60291 209.108 5.69711C205.728 4.79131 202.342 3.99636 198.955 3.31025L197.633 9.83413L194.99 22.8819L193.669 29.4058ZM150.09 27.5471C155.852 26.8785 161.69 26.5685 167.572 26.6342L167.646 19.9782L167.795 6.66627L167.869 0.0102949C160.854 -0.0680835 153.893 0.301682 147.021 1.09891L147.788 7.71095L149.323 20.935L150.09 27.5471ZM234.611 44.5973C239.738 47.4816 244.638 50.6687 249.295 54.129L253.265 48.7864L261.206 38.1011L265.176 32.7585C259.624 28.6322 253.78 24.8312 247.666 21.3916L244.402 27.1931L237.875 38.7959L234.611 44.5973ZM108.075 39.3139C113.379 36.8818 118.84 34.7786 124.426 33.0225L122.429 26.6726L118.436 13.9727L116.44 7.62278C109.789 9.71384 103.289 12.2173 96.9779 15.1109L99.7521 21.1617L105.301 33.2631L108.075 39.3139ZM268.783 71.7029C272.742 76.0164 276.42 80.5684 279.797 85.3268L285.225 81.4738L296.081 73.7679L301.509 69.9149C297.49 64.2533 293.113 58.8353 288.399 53.699L283.495 58.2L273.687 67.2019L268.783 71.7029ZM71.7029 63.4621C76.0164 59.503 80.5684 55.8252 85.3268 52.4474L81.4739 47.0195L73.7679 36.1637L69.9149 30.7358C64.2533 34.7547 58.8353 39.132 53.699 43.8462L58.2 48.7501L67.2019 58.5581L71.7029 63.4621ZM292.931 108.075C295.363 113.379 297.466 118.84 299.222 124.426L305.572 122.429L318.272 118.436L324.622 116.44C322.531 109.789 320.028 103.289 317.134 96.9779L311.083 99.7521L298.982 105.301L292.931 108.075ZM44.5973 97.6336C47.4816 92.5066 50.6687 87.6064 54.129 82.95L48.7864 78.9796L38.1011 71.0389L32.7585 67.0686C28.6322 72.621 24.8312 78.4649 21.3916 84.5793L27.1931 87.8429L38.7959 94.37L44.5973 97.6336ZM304.698 150.09C305.366 155.852 305.676 161.69 305.611 167.572L312.267 167.646L325.579 167.795L332.235 167.869C332.313 160.854 331.943 153.893 331.146 147.021L324.534 147.788L311.31 149.323L304.698 150.09ZM31.4154 130.028C32.1789 127.179 33.0246 124.376 33.9492 121.62L27.6385 119.503L15.0173 115.268L8.70665 113.15C7.60733 116.427 6.60291 119.756 5.69711 123.137C4.79131 126.517 3.99636 129.903 3.31025 133.29L9.83413 134.611L22.8819 137.255L29.4058 138.576C29.9828 135.727 30.652 132.877 31.4154 130.028ZM302.839 193.669C302.262 196.517 301.593 199.368 300.829 202.217L307.259 203.94L320.118 207.385L326.548 209.108C327.454 205.728 328.248 202.342 328.935 198.955L322.411 197.633L309.363 194.99L302.839 193.669ZM27.5471 182.155C26.8785 176.392 26.5685 170.555 26.6342 164.673L19.9782 164.599L6.66627 164.45L0.0102949 164.375C-0.0680834 171.39 0.30168 178.352 1.09891 185.224L7.71095 184.456L20.935 182.922L27.5471 182.155ZM39.3139 224.17C36.8818 218.866 34.7786 213.405 33.0225 207.819L26.6726 209.816L13.9727 213.809L7.62278 215.805C9.71384 222.456 12.2173 228.956 15.1109 235.267L21.1617 232.493L33.2631 226.944L39.3139 224.17ZM63.4621 260.542C59.503 256.228 55.8252 251.676 52.4474 246.918L47.0195 250.771L36.1637 258.477L30.7358 262.33C34.7547 267.992 39.132 273.41 43.8462 278.546L48.7501 274.045L58.5581 265.043L63.4621 260.542ZM97.6336 287.648C92.5066 284.763 87.6064 281.576 82.95 278.116L78.9796 283.458L71.0389 294.144L67.0686 299.486C72.621 303.613 78.4649 307.414 84.5793 310.853L87.8429 305.052L94.37 293.449L97.6336 287.648ZM130.028 300.829C127.179 300.066 124.376 299.22 121.62 298.296L119.503 304.606L115.268 317.228L113.15 323.538C116.427 324.638 119.756 325.642 123.137 326.548L124.859 320.118L128.305 307.259L130.028 300.829ZM252.541 215.827C248.91 215.827 245.322 216.012 241.787 216.373L243.141 229.617C246.227 229.302 249.363 229.14 252.541 229.14C255.719 229.14 258.855 229.302 261.941 229.617L263.295 216.373C259.759 216.012 256.171 215.827 252.541 215.827ZM300.298 227.392C293.983 224.115 287.266 221.469 280.237 219.539L276.712 232.376C282.832 234.057 288.677 236.36 294.167 239.209L300.298 227.392ZM224.844 219.539C217.816 221.469 211.098 224.115 204.783 227.392L210.914 239.209C216.405 236.36 222.249 234.057 228.37 232.376L224.844 219.539ZM330.582 251.43C325.922 245.957 320.658 240.987 314.89 236.613L306.845 247.22C311.853 251.018 316.415 255.327 320.447 260.061L330.582 251.43ZM190.192 236.613C184.424 240.987 179.16 245.957 174.499 251.43L184.635 260.061C188.667 255.327 193.229 251.018 198.236 247.22L190.192 236.613ZM349.305 285.375C347.153 278.402 344.216 271.761 340.595 265.547L329.093 272.25C332.213 277.605 334.737 283.315 336.584 289.3L349.305 285.375ZM164.487 265.547C160.866 271.761 157.928 278.402 155.777 285.375L168.498 289.3C170.344 283.315 172.869 277.605 175.989 272.25L164.487 265.547ZM353.486 313.192C353.486 309.532 353.276 305.918 352.868 302.359L339.642 303.878C339.993 306.934 340.173 310.041 340.173 313.192C340.173 316.342 339.993 319.45 339.642 322.506L352.868 324.025C353.276 320.466 353.486 316.851 353.486 313.192ZM152.214 302.359C151.805 305.918 151.596 309.532 151.596 313.192C151.596 316.851 151.805 320.466 152.214 324.025L165.44 322.506C165.089 319.45 164.908 316.342 164.908 313.192C164.908 310.041 165.089 306.934 165.44 303.878L152.214 302.359ZM340.595 360.836C344.216 354.622 347.153 347.981 349.305 341.008L336.584 337.083C334.737 343.068 332.213 348.778 329.093 354.133L340.595 360.836ZM155.777 341.008C157.928 347.981 160.866 354.622 164.487 360.836L175.989 354.133C172.869 348.778 170.344 343.068 168.498 337.083L155.777 341.008ZM314.89 389.77C320.658 385.396 325.922 380.426 330.582 374.953L320.447 366.322C316.415 371.056 311.853 375.365 306.845 379.163L314.89 389.77ZM174.499 374.953C179.16 380.426 184.424 385.396 190.192 389.77L198.236 379.163C193.229 375.365 188.667 371.056 184.635 366.322L174.499 374.953ZM204.783 398.991C211.098 402.268 217.816 404.914 224.844 406.844L228.37 394.007C222.249 392.326 216.405 390.023 210.914 387.174L204.783 398.991ZM280.237 406.844C287.266 404.914 293.983 402.268 300.298 398.991L294.167 387.174C288.677 390.023 282.832 392.326 276.712 394.007L280.237 406.844ZM241.787 410.01C245.322 410.371 248.91 410.556 252.541 410.556C256.171 410.556 259.759 410.371 263.295 410.01L261.941 396.766C258.855 397.081 255.719 397.243 252.541 397.243C249.363 397.243 246.227 397.081 243.141 396.766L241.787 410.01Z" fill="url(#paint0_linear)"/>
<defs>
<linearGradient id="paint0_linear" x1="350.627" y1="363.915" x2="75.9054" y2="33.4936" gradientUnits="userSpaceOnUse">
<stop stop-color="#8E2EEF"/>
<stop offset="1" stop-color="#FF4ACC"/>
</linearGradient>
</defs>
</svg>
