<svg width="50" height="59" viewBox="0 0 50 59" fill="none" xmlns="http://www.w3.org/2000/svg">
<path d="M27.3941 4.1594C27.7971 4.24102 28.2003 4.33568 28.6033 4.44366C29.0063 4.55165 29.4028 4.67127 29.7925 4.80205L30.9906 1.23154C30.5271 1.07604 30.0562 0.93397 29.578 0.805847C29.0999 0.677723 28.6209 0.565279 28.1419 0.468229L27.3941 4.1594Z" fill="url(#paint0_linear_588_358)"/>
<path d="M21.2299 3.89649C22.0451 3.80192 22.8707 3.75807 23.7028 3.76736L23.7448 0.0014562C22.7526 -0.00963029 21.7679 0.0426724 20.7959 0.155439L21.2299 3.89649Z" fill="url(#paint1_linear_588_358)"/>
<path d="M33.1854 6.30822C33.9106 6.71619 34.6037 7.167 35.2623 7.65646L37.5087 4.63363C36.7234 4.04997 35.8967 3.51234 35.0319 3.02581L33.1854 6.30822Z" fill="url(#paint2_linear_588_358)"/>
<path d="M15.287 5.56088C16.0373 5.21687 16.8098 4.91938 17.5998 4.67098L16.4702 1.07823C15.5295 1.37401 14.6101 1.72811 13.7174 2.13742L15.287 5.56088Z" fill="url(#paint3_linear_588_358)"/>
<path d="M38.0189 10.1422C38.5789 10.7524 39.0991 11.3963 39.5769 12.0693L42.6479 9.88934C42.0795 9.08852 41.4603 8.32215 40.7935 7.59564L38.0189 10.1422Z" fill="url(#paint4_linear_588_358)"/>
<path d="M10.1422 8.9766C10.7524 8.4166 11.3963 7.89638 12.0693 7.41859L9.88935 4.34753C9.08852 4.91599 8.32215 5.53516 7.59564 6.20197L10.1422 8.9766Z" fill="url(#paint5_linear_588_358)"/>
<path d="M41.4346 15.287C41.7786 16.0373 42.0761 16.8098 42.3245 17.5998L45.9172 16.4702C45.6215 15.5295 45.2674 14.6101 44.8581 13.7174L41.4346 15.287Z" fill="url(#paint6_linear_588_358)"/>
<path d="M6.30822 13.8101C6.71619 13.0849 7.167 12.3918 7.65646 11.7331L4.63363 9.48674C4.04997 10.2721 3.51234 11.0987 3.02581 11.9636L6.30822 13.8101Z" fill="url(#paint7_linear_588_358)"/>
<path d="M43.099 21.2299C43.1936 22.0451 43.2374 22.8707 43.2281 23.7028L46.994 23.7448C47.0051 22.7526 46.9528 21.7679 46.84 20.7959L43.099 21.2299Z" fill="url(#paint8_linear_588_358)"/>
<path d="M4.44366 18.3922C4.55165 17.9892 4.67127 17.5927 4.80205 17.2029L1.23154 16.0049C1.07604 16.4683 0.93397 16.9393 0.805847 17.4175C0.677723 17.8956 0.565279 18.3745 0.468229 18.8536L4.1594 19.6014C4.24102 19.1984 4.33568 18.7952 4.44366 18.3922Z" fill="url(#paint9_linear_588_358)"/>
<path d="M42.8361 27.3941C42.7545 27.7971 42.6598 28.2003 42.5518 28.6033L46.1896 29.578C46.3177 29.0999 46.4302 28.6209 46.5273 28.1419L42.8361 27.3941Z" fill="url(#paint10_linear_588_358)"/>
<path d="M3.89649 25.7655C3.80192 24.9504 3.75807 24.1247 3.76736 23.2927L0.0014562 23.2506C-0.00963028 24.2429 0.0426721 25.2276 0.155439 26.1996L3.89649 25.7655Z" fill="url(#paint11_linear_588_358)"/>
<path d="M5.56088 31.7085C5.21687 30.9582 4.91938 30.1857 4.67098 29.3957L1.07823 30.5253C1.37401 31.466 1.72811 32.3854 2.13742 33.2781L5.56088 31.7085Z" fill="url(#paint12_linear_588_358)"/>
<path d="M8.9766 36.8532C8.4166 36.2431 7.89638 35.5992 7.41859 34.9261L4.34753 37.1061C4.91599 37.907 5.53516 38.6733 6.20197 39.3998L8.9766 36.8532Z" fill="url(#paint13_linear_588_358)"/>
<path d="M13.8101 40.6873C13.0849 40.2793 12.3918 39.8285 11.7331 39.339L9.48674 42.3618C10.2721 42.9455 11.0987 43.4831 11.9636 43.9697L13.8101 40.6873Z" fill="url(#paint14_linear_588_358)"/>
<path d="M18.3922 42.5518C17.9892 42.4438 17.5927 42.3242 17.2029 42.1934L16.0049 45.7639C16.4683 45.9194 16.9393 46.0615 17.4175 46.1896L18.3922 42.5518Z" fill="url(#paint15_linear_588_358)"/>
<path d="M35.7215 30.5284C35.208 30.5284 34.7004 30.5545 34.2004 30.6057L34.3918 32.479C34.8284 32.4343 35.272 32.4114 35.7215 32.4114C36.171 32.4114 36.6146 32.4343 37.0511 32.479L37.2426 30.6057C36.7425 30.5545 36.235 30.5284 35.7215 30.5284Z" fill="url(#paint16_linear_588_358)"/>
<path d="M42.4767 32.1642C41.5834 31.7007 40.6333 31.3264 39.6391 31.0534L39.1404 32.8692C40.0061 33.107 40.8328 33.4328 41.6095 33.8357L42.4767 32.1642Z" fill="url(#paint17_linear_588_358)"/>
<path d="M31.8038 31.0534C30.8097 31.3264 29.8595 31.7007 28.9663 32.1642L29.8335 33.8357C30.6101 33.4328 31.4368 33.107 32.3025 32.8692L31.8038 31.0534Z" fill="url(#paint18_linear_588_358)"/>
<path d="M46.7603 35.5643C46.1011 34.7902 45.3565 34.0872 44.5406 33.4685L43.4028 34.9689C44.1111 35.5061 44.7564 36.1155 45.3267 36.7852L46.7603 35.5643Z" fill="url(#paint19_linear_588_358)"/>
<path d="M26.9023 33.4685C26.0864 34.0872 25.3418 34.7902 24.6826 35.5643L26.1163 36.7852C26.6866 36.1155 27.3319 35.5061 28.0402 34.9689L26.9023 33.4685Z" fill="url(#paint20_linear_588_358)"/>
<path d="M49.4086 40.3658C49.1043 39.3795 48.6888 38.4402 48.1766 37.5612L46.5496 38.5093C46.991 39.2667 47.348 40.0745 47.6092 40.921L49.4086 40.3658Z" fill="url(#paint21_linear_588_358)"/>
<path d="M23.2664 37.5612C22.7542 38.4402 22.3387 39.3795 22.0344 40.3658L23.8337 40.921C24.0949 40.0745 24.452 39.2667 24.8933 38.5094L23.2664 37.5612Z" fill="url(#paint22_linear_588_358)"/>
<path d="M50 44.3004C50 43.7828 49.9704 43.2715 49.9125 42.7681L48.0418 42.983C48.0914 43.4152 48.1169 43.8548 48.1169 44.3004C48.1169 44.7461 48.0914 45.1856 48.0418 45.6179L49.9125 45.8327C49.9704 45.3293 50 44.818 50 44.3004Z" fill="url(#paint23_linear_588_358)"/>
<path d="M21.5304 42.7681C21.4726 43.2715 21.4429 43.7828 21.4429 44.3004C21.4429 44.818 21.4726 45.3293 21.5304 45.8327L23.4012 45.6179C23.3515 45.1856 23.326 44.7461 23.326 44.3004C23.326 43.8548 23.3515 43.4152 23.4012 42.983L21.5304 42.7681Z" fill="url(#paint24_linear_588_358)"/>
<path d="M48.1766 51.0396C48.6888 50.1606 49.1043 49.2213 49.4086 48.2351L47.6092 47.6799C47.348 48.5264 46.991 49.3341 46.5496 50.0915L48.1766 51.0396Z" fill="url(#paint25_linear_588_358)"/>
<path d="M22.0344 48.2351C22.3387 49.2213 22.7542 50.1607 23.2664 51.0396L24.8933 50.0915C24.452 49.3341 24.0949 48.5264 23.8337 47.6799L22.0344 48.2351Z" fill="url(#paint26_linear_588_358)"/>
<path d="M44.5407 55.1323C45.3565 54.5136 46.1011 53.8106 46.7603 53.0365L45.3267 51.8156C44.7564 52.4853 44.1111 53.0948 43.4028 53.632L44.5407 55.1323Z" fill="url(#paint27_linear_588_358)"/>
<path d="M24.6826 53.0365C25.3418 53.8106 26.0864 54.5136 26.9023 55.1323L28.0402 53.632C27.3319 53.0948 26.6866 52.4853 26.1163 51.8156L24.6826 53.0365Z" fill="url(#paint28_linear_588_358)"/>
<path d="M28.9663 56.4367C29.8595 56.9001 30.8097 57.2744 31.8038 57.5474L32.3025 55.7316C31.4368 55.4939 30.6101 55.1681 29.8335 54.7652L28.9663 56.4367Z" fill="url(#paint29_linear_588_358)"/>
<path d="M39.6391 57.5474C40.6333 57.2744 41.5834 56.9001 42.4767 56.4367L41.6095 54.7652C40.8328 55.1681 40.0061 55.4939 39.1404 55.7316L39.6391 57.5474Z" fill="url(#paint30_linear_588_358)"/>
<path d="M34.2004 57.9952C34.7005 58.0463 35.208 58.0725 35.7215 58.0725C36.235 58.0725 36.7425 58.0463 37.2426 57.9952L37.0511 56.1219C36.6146 56.1665 36.171 56.1894 35.7215 56.1894C35.272 56.1894 34.8284 56.1665 34.3918 56.1219L34.2004 57.9952Z" fill="url(#paint31_linear_588_358)"/>
<defs>
<linearGradient id="paint0_linear_588_358" x1="49.5956" y1="51.4752" x2="10.7367" y2="4.73762" gradientUnits="userSpaceOnUse">
<stop stop-color="#8E2EEF"/>
<stop offset="1" stop-color="#FF4ACC"/>
</linearGradient>
<linearGradient id="paint1_linear_588_358" x1="49.5956" y1="51.4752" x2="10.7367" y2="4.73762" gradientUnits="userSpaceOnUse">
<stop stop-color="#8E2EEF"/>
<stop offset="1" stop-color="#FF4ACC"/>
</linearGradient>
<linearGradient id="paint2_linear_588_358" x1="49.5956" y1="51.4752" x2="10.7367" y2="4.73762" gradientUnits="userSpaceOnUse">
<stop stop-color="#8E2EEF"/>
<stop offset="1" stop-color="#FF4ACC"/>
</linearGradient>
<linearGradient id="paint3_linear_588_358" x1="49.5956" y1="51.4752" x2="10.7367" y2="4.73762" gradientUnits="userSpaceOnUse">
<stop stop-color="#8E2EEF"/>
<stop offset="1" stop-color="#FF4ACC"/>
</linearGradient>
<linearGradient id="paint4_linear_588_358" x1="49.5956" y1="51.4752" x2="10.7367" y2="4.73762" gradientUnits="userSpaceOnUse">
<stop stop-color="#8E2EEF"/>
<stop offset="1" stop-color="#FF4ACC"/>
</linearGradient>
<linearGradient id="paint5_linear_588_358" x1="49.5956" y1="51.4752" x2="10.7367" y2="4.73762" gradientUnits="userSpaceOnUse">
<stop stop-color="#8E2EEF"/>
<stop offset="1" stop-color="#FF4ACC"/>
</linearGradient>
<linearGradient id="paint6_linear_588_358" x1="49.5956" y1="51.4752" x2="10.7367" y2="4.73762" gradientUnits="userSpaceOnUse">
<stop stop-color="#8E2EEF"/>
<stop offset="1" stop-color="#FF4ACC"/>
</linearGradient>
<linearGradient id="paint7_linear_588_358" x1="49.5956" y1="51.4752" x2="10.7367" y2="4.73762" gradientUnits="userSpaceOnUse">
<stop stop-color="#8E2EEF"/>
<stop offset="1" stop-color="#FF4ACC"/>
</linearGradient>
<linearGradient id="paint8_linear_588_358" x1="49.5956" y1="51.4752" x2="10.7367" y2="4.73762" gradientUnits="userSpaceOnUse">
<stop stop-color="#8E2EEF"/>
<stop offset="1" stop-color="#FF4ACC"/>
</linearGradient>
<linearGradient id="paint9_linear_588_358" x1="49.5956" y1="51.4752" x2="10.7367" y2="4.73762" gradientUnits="userSpaceOnUse">
<stop stop-color="#8E2EEF"/>
<stop offset="1" stop-color="#FF4ACC"/>
</linearGradient>
<linearGradient id="paint10_linear_588_358" x1="49.5956" y1="51.4752" x2="10.7367" y2="4.73762" gradientUnits="userSpaceOnUse">
<stop stop-color="#8E2EEF"/>
<stop offset="1" stop-color="#FF4ACC"/>
</linearGradient>
<linearGradient id="paint11_linear_588_358" x1="49.5956" y1="51.4752" x2="10.7367" y2="4.73762" gradientUnits="userSpaceOnUse">
<stop stop-color="#8E2EEF"/>
<stop offset="1" stop-color="#FF4ACC"/>
</linearGradient>
<linearGradient id="paint12_linear_588_358" x1="49.5956" y1="51.4752" x2="10.7367" y2="4.73762" gradientUnits="userSpaceOnUse">
<stop stop-color="#8E2EEF"/>
<stop offset="1" stop-color="#FF4ACC"/>
</linearGradient>
<linearGradient id="paint13_linear_588_358" x1="49.5956" y1="51.4752" x2="10.7367" y2="4.73762" gradientUnits="userSpaceOnUse">
<stop stop-color="#8E2EEF"/>
<stop offset="1" stop-color="#FF4ACC"/>
</linearGradient>
<linearGradient id="paint14_linear_588_358" x1="49.5956" y1="51.4752" x2="10.7367" y2="4.73762" gradientUnits="userSpaceOnUse">
<stop stop-color="#8E2EEF"/>
<stop offset="1" stop-color="#FF4ACC"/>
</linearGradient>
<linearGradient id="paint15_linear_588_358" x1="49.5956" y1="51.4752" x2="10.7367" y2="4.73762" gradientUnits="userSpaceOnUse">
<stop stop-color="#8E2EEF"/>
<stop offset="1" stop-color="#FF4ACC"/>
</linearGradient>
<linearGradient id="paint16_linear_588_358" x1="49.5956" y1="51.4752" x2="10.7367" y2="4.73762" gradientUnits="userSpaceOnUse">
<stop stop-color="#8E2EEF"/>
<stop offset="1" stop-color="#FF4ACC"/>
</linearGradient>
<linearGradient id="paint17_linear_588_358" x1="49.5956" y1="51.4752" x2="10.7367" y2="4.73762" gradientUnits="userSpaceOnUse">
<stop stop-color="#8E2EEF"/>
<stop offset="1" stop-color="#FF4ACC"/>
</linearGradient>
<linearGradient id="paint18_linear_588_358" x1="49.5956" y1="51.4752" x2="10.7367" y2="4.73762" gradientUnits="userSpaceOnUse">
<stop stop-color="#8E2EEF"/>
<stop offset="1" stop-color="#FF4ACC"/>
</linearGradient>
<linearGradient id="paint19_linear_588_358" x1="49.5956" y1="51.4752" x2="10.7367" y2="4.73762" gradientUnits="userSpaceOnUse">
<stop stop-color="#8E2EEF"/>
<stop offset="1" stop-color="#FF4ACC"/>
</linearGradient>
<linearGradient id="paint20_linear_588_358" x1="49.5956" y1="51.4752" x2="10.7367" y2="4.73762" gradientUnits="userSpaceOnUse">
<stop stop-color="#8E2EEF"/>
<stop offset="1" stop-color="#FF4ACC"/>
</linearGradient>
<linearGradient id="paint21_linear_588_358" x1="49.5956" y1="51.4752" x2="10.7367" y2="4.73762" gradientUnits="userSpaceOnUse">
<stop stop-color="#8E2EEF"/>
<stop offset="1" stop-color="#FF4ACC"/>
</linearGradient>
<linearGradient id="paint22_linear_588_358" x1="49.5956" y1="51.4752" x2="10.7367" y2="4.73762" gradientUnits="userSpaceOnUse">
<stop stop-color="#8E2EEF"/>
<stop offset="1" stop-color="#FF4ACC"/>
</linearGradient>
<linearGradient id="paint23_linear_588_358" x1="49.5956" y1="51.4752" x2="10.7367" y2="4.73762" gradientUnits="userSpaceOnUse">
<stop stop-color="#8E2EEF"/>
<stop offset="1" stop-color="#FF4ACC"/>
</linearGradient>
<linearGradient id="paint24_linear_588_358" x1="49.5956" y1="51.4752" x2="10.7367" y2="4.73762" gradientUnits="userSpaceOnUse">
<stop stop-color="#8E2EEF"/>
<stop offset="1" stop-color="#FF4ACC"/>
</linearGradient>
<linearGradient id="paint25_linear_588_358" x1="49.5956" y1="51.4752" x2="10.7367" y2="4.73762" gradientUnits="userSpaceOnUse">
<stop stop-color="#8E2EEF"/>
<stop offset="1" stop-color="#FF4ACC"/>
</linearGradient>
<linearGradient id="paint26_linear_588_358" x1="49.5956" y1="51.4752" x2="10.7367" y2="4.73762" gradientUnits="userSpaceOnUse">
<stop stop-color="#8E2EEF"/>
<stop offset="1" stop-color="#FF4ACC"/>
</linearGradient>
<linearGradient id="paint27_linear_588_358" x1="49.5956" y1="51.4752" x2="10.7367" y2="4.73762" gradientUnits="userSpaceOnUse">
<stop stop-color="#8E2EEF"/>
<stop offset="1" stop-color="#FF4ACC"/>
</linearGradient>
<linearGradient id="paint28_linear_588_358" x1="49.5956" y1="51.4752" x2="10.7367" y2="4.73762" gradientUnits="userSpaceOnUse">
<stop stop-color="#8E2EEF"/>
<stop offset="1" stop-color="#FF4ACC"/>
</linearGradient>
<linearGradient id="paint29_linear_588_358" x1="49.5956" y1="51.4752" x2="10.7367" y2="4.73762" gradientUnits="userSpaceOnUse">
<stop stop-color="#8E2EEF"/>
<stop offset="1" stop-color="#FF4ACC"/>
</linearGradient>
<linearGradient id="paint30_linear_588_358" x1="49.5956" y1="51.4752" x2="10.7367" y2="4.73762" gradientUnits="userSpaceOnUse">
<stop stop-color="#8E2EEF"/>
<stop offset="1" stop-color="#FF4ACC"/>
</linearGradient>
<linearGradient id="paint31_linear_588_358" x1="49.5956" y1="51.4752" x2="10.7367" y2="4.73762" gradientUnits="userSpaceOnUse">
<stop stop-color="#8E2EEF"/>
<stop offset="1" stop-color="#FF4ACC"/>
</linearGradient>
</defs>
</svg>
