<svg width="257" height="62" viewBox="0 0 257 62" fill="none" xmlns="http://www.w3.org/2000/svg">
<path d="M27.3941 4.1594C27.7971 4.24102 28.2003 4.33568 28.6033 4.44366C29.0063 4.55165 29.4028 4.67127 29.7925 4.80205L30.9906 1.23154C30.5271 1.07604 30.0562 0.93397 29.578 0.805847C29.0999 0.677723 28.6209 0.565279 28.1419 0.468229L27.3941 4.1594Z" fill="url(#paint0_linear_744_559)"/>
<path d="M21.2299 3.89649C22.0451 3.80192 22.8707 3.75807 23.7028 3.76736L23.7448 0.0014562C22.7526 -0.00963029 21.7679 0.0426724 20.7959 0.155439L21.2299 3.89649Z" fill="url(#paint1_linear_744_559)"/>
<path d="M33.1854 6.30822C33.9106 6.71619 34.6037 7.167 35.2623 7.65646L37.5087 4.63363C36.7234 4.04997 35.8967 3.51234 35.0319 3.02581L33.1854 6.30822Z" fill="url(#paint2_linear_744_559)"/>
<path d="M15.287 5.56088C16.0373 5.21687 16.8098 4.91938 17.5998 4.67098L16.4702 1.07823C15.5295 1.37401 14.6101 1.72811 13.7174 2.13742L15.287 5.56088Z" fill="url(#paint3_linear_744_559)"/>
<path d="M38.0189 10.1422C38.5789 10.7524 39.0991 11.3963 39.5769 12.0693L42.6479 9.88934C42.0795 9.08852 41.4603 8.32215 40.7935 7.59564L38.0189 10.1422Z" fill="url(#paint4_linear_744_559)"/>
<path d="M10.1422 8.9766C10.7524 8.4166 11.3963 7.89638 12.0693 7.41859L9.88935 4.34753C9.08852 4.91599 8.32215 5.53516 7.59564 6.20197L10.1422 8.9766Z" fill="url(#paint5_linear_744_559)"/>
<path d="M41.4346 15.287C41.7786 16.0373 42.0761 16.8098 42.3245 17.5998L45.9172 16.4702C45.6215 15.5295 45.2674 14.6101 44.8581 13.7174L41.4346 15.287Z" fill="url(#paint6_linear_744_559)"/>
<path d="M6.30822 13.8101C6.71619 13.0849 7.167 12.3918 7.65646 11.7331L4.63363 9.48674C4.04997 10.2721 3.51234 11.0987 3.02581 11.9636L6.30822 13.8101Z" fill="url(#paint7_linear_744_559)"/>
<path d="M43.099 21.2299C43.1936 22.0451 43.2374 22.8707 43.2281 23.7028L46.994 23.7448C47.0051 22.7526 46.9528 21.7679 46.84 20.7959L43.099 21.2299Z" fill="url(#paint8_linear_744_559)"/>
<path d="M4.44366 18.3922C4.55165 17.9892 4.67127 17.5927 4.80205 17.2029L1.23154 16.0049C1.07604 16.4683 0.93397 16.9393 0.805847 17.4175C0.677723 17.8956 0.565279 18.3745 0.468229 18.8536L4.1594 19.6014C4.24102 19.1984 4.33568 18.7952 4.44366 18.3922Z" fill="url(#paint9_linear_744_559)"/>
<path d="M42.8361 27.3941C42.7545 27.7971 42.6598 28.2003 42.5518 28.6033L46.1896 29.578C46.3177 29.0999 46.4302 28.6209 46.5273 28.1419L42.8361 27.3941Z" fill="url(#paint10_linear_744_559)"/>
<path d="M3.89649 25.7655C3.80192 24.9504 3.75807 24.1247 3.76736 23.2927L0.0014562 23.2506C-0.00963028 24.2429 0.0426721 25.2276 0.155439 26.1996L3.89649 25.7655Z" fill="url(#paint11_linear_744_559)"/>
<path d="M5.56088 31.7085C5.21687 30.9582 4.91938 30.1857 4.67098 29.3957L1.07823 30.5253C1.37401 31.466 1.72811 32.3854 2.13742 33.2781L5.56088 31.7085Z" fill="url(#paint12_linear_744_559)"/>
<path d="M8.9766 36.8532C8.4166 36.2431 7.89638 35.5992 7.41859 34.9261L4.34753 37.1061C4.91599 37.907 5.53516 38.6733 6.20197 39.3998L8.9766 36.8532Z" fill="url(#paint13_linear_744_559)"/>
<path d="M13.8101 40.6873C13.0849 40.2793 12.3918 39.8285 11.7331 39.339L9.48674 42.3618C10.2721 42.9455 11.0987 43.4831 11.9636 43.9697L13.8101 40.6873Z" fill="url(#paint14_linear_744_559)"/>
<path d="M18.3922 42.5518C17.9892 42.4438 17.5927 42.3242 17.2029 42.1934L16.0049 45.7639C16.4683 45.9194 16.9393 46.0615 17.4175 46.1896L18.3922 42.5518Z" fill="url(#paint15_linear_744_559)"/>
<path d="M35.7215 30.5284C35.208 30.5284 34.7004 30.5545 34.2004 30.6057L34.3918 32.479C34.8284 32.4343 35.272 32.4114 35.7215 32.4114C36.171 32.4114 36.6146 32.4343 37.0511 32.479L37.2426 30.6057C36.7425 30.5545 36.235 30.5284 35.7215 30.5284Z" fill="url(#paint16_linear_744_559)"/>
<path d="M42.4767 32.1642C41.5834 31.7007 40.6333 31.3264 39.6391 31.0534L39.1404 32.8692C40.0061 33.107 40.8328 33.4328 41.6095 33.8357L42.4767 32.1642Z" fill="url(#paint17_linear_744_559)"/>
<path d="M31.8038 31.0534C30.8097 31.3264 29.8595 31.7007 28.9663 32.1642L29.8335 33.8357C30.6101 33.4328 31.4368 33.107 32.3025 32.8692L31.8038 31.0534Z" fill="url(#paint18_linear_744_559)"/>
<path d="M46.7603 35.5643C46.1011 34.7902 45.3565 34.0872 44.5406 33.4685L43.4028 34.9689C44.1111 35.5061 44.7564 36.1155 45.3267 36.7852L46.7603 35.5643Z" fill="url(#paint19_linear_744_559)"/>
<path d="M26.9023 33.4685C26.0864 34.0872 25.3418 34.7902 24.6826 35.5643L26.1163 36.7852C26.6866 36.1155 27.3319 35.5061 28.0402 34.9689L26.9023 33.4685Z" fill="url(#paint20_linear_744_559)"/>
<path d="M49.4086 40.3658C49.1043 39.3795 48.6888 38.4402 48.1766 37.5612L46.5496 38.5093C46.991 39.2667 47.348 40.0745 47.6092 40.921L49.4086 40.3658Z" fill="url(#paint21_linear_744_559)"/>
<path d="M23.2664 37.5612C22.7542 38.4402 22.3387 39.3795 22.0344 40.3658L23.8337 40.921C24.0949 40.0745 24.452 39.2667 24.8933 38.5094L23.2664 37.5612Z" fill="url(#paint22_linear_744_559)"/>
<path d="M50 44.3004C50 43.7828 49.9704 43.2715 49.9125 42.7681L48.0418 42.983C48.0914 43.4152 48.1169 43.8548 48.1169 44.3004C48.1169 44.7461 48.0914 45.1856 48.0418 45.6179L49.9125 45.8327C49.9704 45.3293 50 44.818 50 44.3004Z" fill="url(#paint23_linear_744_559)"/>
<path d="M21.5304 42.7681C21.4726 43.2715 21.4429 43.7828 21.4429 44.3004C21.4429 44.818 21.4726 45.3293 21.5304 45.8327L23.4012 45.6179C23.3515 45.1856 23.326 44.7461 23.326 44.3004C23.326 43.8548 23.3515 43.4152 23.4012 42.983L21.5304 42.7681Z" fill="url(#paint24_linear_744_559)"/>
<path d="M48.1766 51.0396C48.6888 50.1606 49.1043 49.2213 49.4086 48.2351L47.6092 47.6799C47.348 48.5264 46.991 49.3341 46.5496 50.0915L48.1766 51.0396Z" fill="url(#paint25_linear_744_559)"/>
<path d="M22.0344 48.2351C22.3387 49.2213 22.7542 50.1607 23.2664 51.0396L24.8933 50.0915C24.452 49.3341 24.0949 48.5264 23.8337 47.6799L22.0344 48.2351Z" fill="url(#paint26_linear_744_559)"/>
<path d="M44.5407 55.1323C45.3565 54.5136 46.1011 53.8106 46.7603 53.0365L45.3267 51.8156C44.7564 52.4853 44.1111 53.0948 43.4028 53.632L44.5407 55.1323Z" fill="url(#paint27_linear_744_559)"/>
<path d="M24.6826 53.0365C25.3418 53.8106 26.0864 54.5136 26.9023 55.1323L28.0402 53.632C27.3319 53.0948 26.6866 52.4853 26.1163 51.8156L24.6826 53.0365Z" fill="url(#paint28_linear_744_559)"/>
<path d="M28.9663 56.4367C29.8595 56.9001 30.8097 57.2744 31.8038 57.5474L32.3025 55.7316C31.4368 55.4939 30.6101 55.1681 29.8335 54.7652L28.9663 56.4367Z" fill="url(#paint29_linear_744_559)"/>
<path d="M39.6391 57.5474C40.6333 57.2744 41.5834 56.9001 42.4767 56.4367L41.6095 54.7652C40.8328 55.1681 40.0061 55.4939 39.1404 55.7316L39.6391 57.5474Z" fill="url(#paint30_linear_744_559)"/>
<path d="M34.2004 57.9952C34.7005 58.0463 35.208 58.0725 35.7215 58.0725C36.235 58.0725 36.7425 58.0463 37.2426 57.9952L37.0511 56.1219C36.6146 56.1665 36.171 56.1894 35.7215 56.1894C35.272 56.1894 34.8284 56.1665 34.3918 56.1219L34.2004 57.9952Z" fill="url(#paint31_linear_744_559)"/>
<path d="M75.416 49.576C73.304 49.576 71.368 49.208 69.608 48.472C67.88 47.704 66.392 46.616 65.144 45.208C63.896 43.8 62.92 42.088 62.216 40.072C61.544 38.056 61.208 35.768 61.208 33.208C61.208 30.648 61.544 28.376 62.216 26.392C62.92 24.376 63.896 22.696 65.144 21.352C66.392 19.976 67.88 18.936 69.608 18.232C71.368 17.496 73.304 17.128 75.416 17.128C77.528 17.128 79.448 17.496 81.176 18.232C82.936 18.936 84.44 19.976 85.688 21.352C86.936 22.728 87.896 24.424 88.568 26.44C89.272 28.424 89.624 30.68 89.624 33.208C89.624 35.768 89.272 38.056 88.568 40.072C87.896 42.088 86.936 43.8 85.688 45.208C84.44 46.616 82.936 47.704 81.176 48.472C79.448 49.208 77.528 49.576 75.416 49.576ZM75.416 43.48C77.56 43.48 79.256 42.568 80.504 40.744C81.752 38.888 82.376 36.376 82.376 33.208C82.376 30.072 81.752 27.624 80.504 25.864C79.256 24.104 77.56 23.224 75.416 23.224C73.272 23.224 71.576 24.104 70.328 25.864C69.08 27.624 68.456 30.072 68.456 33.208C68.456 36.376 69.08 38.888 70.328 40.744C71.576 42.568 73.272 43.48 75.416 43.48ZM95.5085 49V17.704H103.237L108.277 31.624C108.597 32.552 108.901 33.512 109.189 34.504C109.477 35.464 109.781 36.424 110.101 37.384H110.293C110.613 36.424 110.901 35.464 111.157 34.504C111.445 33.512 111.749 32.552 112.069 31.624L117.013 17.704H124.693V49H118.26V37.528C118.26 36.76 118.293 35.912 118.357 34.984C118.421 34.056 118.501 33.128 118.597 32.2C118.693 31.24 118.789 30.312 118.885 29.416C118.981 28.488 119.077 27.64 119.173 26.872H118.981L116.437 34.312L111.973 46.264H108.085L103.621 34.312L101.125 26.872H100.933C101.029 27.64 101.125 28.488 101.221 29.416C101.317 30.312 101.413 31.24 101.509 32.2C101.605 33.128 101.685 34.056 101.749 34.984C101.813 35.912 101.845 36.76 101.845 37.528V49H95.5085ZM132.071 49V17.704H139.127V49H132.071ZM154.812 60.232C151.869 60.232 149.565 59.64 147.901 58.456C146.237 57.272 145.405 55.72 145.405 53.8C145.405 52.776 145.709 51.768 146.317 50.776C146.957 49.784 147.805 48.904 148.861 48.136V47.944C148.285 47.592 147.805 47.112 147.421 46.504C147.037 45.896 146.845 45.16 146.845 44.296C146.845 43.24 147.133 42.36 147.709 41.656C148.317 40.952 148.861 40.424 149.341 40.072V39.88C148.605 39.24 147.933 38.376 147.325 37.288C146.749 36.2 146.461 34.952 146.461 33.544C146.461 32.392 146.653 31.336 147.037 30.376C147.453 29.384 148.013 28.536 148.717 27.832C149.453 27.096 150.285 26.52 151.213 26.104C152.173 25.688 153.213 25.48 154.333 25.48C154.973 25.48 155.533 25.544 156.013 25.672C156.525 25.768 156.957 25.896 157.309 26.056H164.989V27.4H159.421C160.253 28.072 160.925 28.936 161.437 29.992C161.949 31.048 162.205 32.232 162.205 33.544C162.205 34.696 161.997 35.768 161.581 36.76C161.197 37.752 160.637 38.616 159.901 39.352C159.197 40.088 158.365 40.664 157.405 41.08C156.445 41.496 155.421 41.704 154.333 41.704C153.661 41.704 152.973 41.624 152.269 41.464C151.565 41.272 150.941 41 150.397 40.648C149.853 41.096 149.373 41.592 148.957 42.136C148.573 42.68 148.381 43.368 148.381 44.2C148.381 44.648 148.445 45.064 148.573 45.448C148.733 45.832 148.973 46.168 149.293 46.456C149.645 46.744 150.109 46.968 150.685 47.128C151.261 47.288 151.997 47.368 152.893 47.368H157.981C160.541 47.368 162.413 47.784 163.597 48.616C164.781 49.448 165.373 50.76 165.373 52.552C165.373 53.512 165.117 54.456 164.605 55.384C164.125 56.312 163.421 57.128 162.493 57.832C161.597 58.568 160.493 59.144 159.181 59.56C157.869 60.008 156.413 60.232 154.812 60.232ZM154.333 40.36C155.165 40.36 155.965 40.2 156.733 39.88C157.501 39.528 158.173 39.064 158.749 38.488C159.325 37.88 159.789 37.16 160.141 36.328C160.493 35.496 160.669 34.568 160.669 33.544C160.669 32.52 160.493 31.592 160.141 30.76C159.821 29.928 159.373 29.224 158.797 28.648C158.221 28.072 157.549 27.624 156.781 27.304C156.013 26.984 155.197 26.824 154.333 26.824C153.469 26.824 152.653 26.984 151.885 27.304C151.117 27.624 150.445 28.072 149.868 28.648C149.293 29.224 148.829 29.928 148.477 30.76C148.157 31.592 147.997 32.52 147.997 33.544C147.997 34.568 148.173 35.496 148.525 36.328C148.877 37.16 149.341 37.88 149.917 38.488C150.493 39.064 151.165 39.528 151.933 39.88C152.701 40.2 153.501 40.36 154.333 40.36ZM154.909 58.888C156.285 58.888 157.517 58.696 158.605 58.312C159.725 57.96 160.669 57.496 161.437 56.92C162.205 56.344 162.797 55.672 163.213 54.904C163.629 54.168 163.837 53.416 163.837 52.648C163.837 51.304 163.357 50.344 162.397 49.768C161.469 49.192 160.093 48.904 158.269 48.904H152.989C152.829 48.904 152.477 48.888 151.933 48.856C151.421 48.792 150.845 48.68 150.205 48.52C149.053 49.288 148.221 50.12 147.709 51.016C147.197 51.944 146.941 52.84 146.941 53.704C146.941 55.24 147.629 56.488 149.005 57.448C150.381 58.408 152.349 58.888 154.909 58.888ZM170.483 49V26.056H171.731L171.923 30.376H172.019C172.787 28.968 173.715 27.8 174.803 26.872C175.891 25.944 177.139 25.48 178.547 25.48C178.931 25.48 179.299 25.512 179.651 25.576C180.003 25.64 180.371 25.768 180.755 25.96L180.371 27.304C179.987 27.144 179.667 27.048 179.411 27.016C179.155 26.952 178.803 26.92 178.355 26.92C177.299 26.92 176.195 27.384 175.043 28.312C173.891 29.208 172.851 30.792 171.923 33.064V49H170.483ZM192.846 49.576C191.47 49.576 190.158 49.304 188.91 48.76C187.694 48.216 186.622 47.432 185.694 46.408C184.766 45.384 184.03 44.136 183.486 42.664C182.942 41.16 182.67 39.464 182.67 37.576C182.67 35.656 182.942 33.944 183.486 32.44C184.03 30.936 184.766 29.672 185.694 28.648C186.622 27.624 187.694 26.84 188.91 26.296C190.158 25.752 191.47 25.48 192.846 25.48C194.222 25.48 195.518 25.752 196.734 26.296C197.982 26.84 199.07 27.624 199.998 28.648C200.926 29.672 201.662 30.936 202.206 32.44C202.75 33.944 203.022 35.656 203.022 37.576C203.022 39.464 202.75 41.16 202.206 42.664C201.662 44.136 200.926 45.384 199.998 46.408C199.07 47.432 197.982 48.216 196.734 48.76C195.518 49.304 194.222 49.576 192.846 49.576ZM192.846 48.232C194.062 48.232 195.198 47.976 196.254 47.464C197.31 46.952 198.222 46.232 198.99 45.304C199.758 44.344 200.366 43.224 200.814 41.944C201.262 40.632 201.486 39.176 201.486 37.576C201.486 36.008 201.262 34.568 200.814 33.256C200.366 31.912 199.758 30.776 198.99 29.848C198.222 28.888 197.31 28.152 196.254 27.64C195.198 27.096 194.062 26.824 192.846 26.824C191.63 26.824 190.494 27.096 189.438 27.64C188.382 28.152 187.47 28.888 186.702 29.848C185.934 30.776 185.326 31.912 184.878 33.256C184.43 34.568 184.206 36.008 184.206 37.576C184.206 39.176 184.43 40.632 184.878 41.944C185.326 43.224 185.934 44.344 186.702 45.304C187.47 46.232 188.382 46.952 189.438 47.464C190.494 47.976 191.63 48.232 192.846 48.232ZM216.761 49.576C214.393 49.576 212.649 48.872 211.529 47.464C210.409 46.056 209.849 43.848 209.849 40.84V26.056H211.289V40.648C211.289 43.208 211.721 45.112 212.585 46.36C213.449 47.608 214.873 48.232 216.857 48.232C218.297 48.232 219.609 47.832 220.793 47.032C221.977 46.232 223.289 44.968 224.729 43.24V26.056H226.169V49H224.921L224.729 45.064H224.633C223.481 46.408 222.281 47.496 221.033 48.328C219.785 49.16 218.361 49.576 216.761 49.576ZM235.405 59.656V26.056H236.653L236.845 29.032H236.941C238.093 28.104 239.341 27.288 240.685 26.584C242.061 25.848 243.469 25.48 244.909 25.48C248.013 25.48 250.317 26.552 251.821 28.696C253.357 30.808 254.125 33.64 254.125 37.192C254.125 39.144 253.853 40.888 253.309 42.424C252.765 43.96 252.029 45.256 251.101 46.312C250.173 47.368 249.085 48.184 247.837 48.76C246.621 49.304 245.325 49.576 243.949 49.576C242.829 49.576 241.677 49.336 240.493 48.856C239.309 48.344 238.093 47.624 236.845 46.696V59.656H235.405ZM244.045 48.232C245.293 48.232 246.429 47.96 247.453 47.416C248.509 46.872 249.421 46.12 250.189 45.16C250.957 44.168 251.549 43 251.965 41.656C252.381 40.28 252.589 38.792 252.589 37.192C252.589 35.72 252.445 34.36 252.157 33.112C251.901 31.832 251.453 30.728 250.813 29.8C250.205 28.872 249.405 28.152 248.413 27.64C247.421 27.096 246.221 26.824 244.813 26.824C243.597 26.824 242.333 27.176 241.021 27.88C239.741 28.552 238.349 29.544 236.845 30.856V45.064C238.253 46.216 239.565 47.032 240.781 47.512C242.029 47.992 243.117 48.232 244.045 48.232Z" fill="black"/>
<defs>
<linearGradient id="paint0_linear_744_559" x1="49.5956" y1="51.4752" x2="10.7367" y2="4.73762" gradientUnits="userSpaceOnUse">
<stop stop-color="#8E2EEF"/>
<stop offset="1" stop-color="#FF4ACC"/>
</linearGradient>
<linearGradient id="paint1_linear_744_559" x1="49.5956" y1="51.4752" x2="10.7367" y2="4.73762" gradientUnits="userSpaceOnUse">
<stop stop-color="#8E2EEF"/>
<stop offset="1" stop-color="#FF4ACC"/>
</linearGradient>
<linearGradient id="paint2_linear_744_559" x1="49.5956" y1="51.4752" x2="10.7367" y2="4.73762" gradientUnits="userSpaceOnUse">
<stop stop-color="#8E2EEF"/>
<stop offset="1" stop-color="#FF4ACC"/>
</linearGradient>
<linearGradient id="paint3_linear_744_559" x1="49.5956" y1="51.4752" x2="10.7367" y2="4.73762" gradientUnits="userSpaceOnUse">
<stop stop-color="#8E2EEF"/>
<stop offset="1" stop-color="#FF4ACC"/>
</linearGradient>
<linearGradient id="paint4_linear_744_559" x1="49.5956" y1="51.4752" x2="10.7367" y2="4.73762" gradientUnits="userSpaceOnUse">
<stop stop-color="#8E2EEF"/>
<stop offset="1" stop-color="#FF4ACC"/>
</linearGradient>
<linearGradient id="paint5_linear_744_559" x1="49.5956" y1="51.4752" x2="10.7367" y2="4.73762" gradientUnits="userSpaceOnUse">
<stop stop-color="#8E2EEF"/>
<stop offset="1" stop-color="#FF4ACC"/>
</linearGradient>
<linearGradient id="paint6_linear_744_559" x1="49.5956" y1="51.4752" x2="10.7367" y2="4.73762" gradientUnits="userSpaceOnUse">
<stop stop-color="#8E2EEF"/>
<stop offset="1" stop-color="#FF4ACC"/>
</linearGradient>
<linearGradient id="paint7_linear_744_559" x1="49.5956" y1="51.4752" x2="10.7367" y2="4.73762" gradientUnits="userSpaceOnUse">
<stop stop-color="#8E2EEF"/>
<stop offset="1" stop-color="#FF4ACC"/>
</linearGradient>
<linearGradient id="paint8_linear_744_559" x1="49.5956" y1="51.4752" x2="10.7367" y2="4.73762" gradientUnits="userSpaceOnUse">
<stop stop-color="#8E2EEF"/>
<stop offset="1" stop-color="#FF4ACC"/>
</linearGradient>
<linearGradient id="paint9_linear_744_559" x1="49.5956" y1="51.4752" x2="10.7367" y2="4.73762" gradientUnits="userSpaceOnUse">
<stop stop-color="#8E2EEF"/>
<stop offset="1" stop-color="#FF4ACC"/>
</linearGradient>
<linearGradient id="paint10_linear_744_559" x1="49.5956" y1="51.4752" x2="10.7367" y2="4.73762" gradientUnits="userSpaceOnUse">
<stop stop-color="#8E2EEF"/>
<stop offset="1" stop-color="#FF4ACC"/>
</linearGradient>
<linearGradient id="paint11_linear_744_559" x1="49.5956" y1="51.4752" x2="10.7367" y2="4.73762" gradientUnits="userSpaceOnUse">
<stop stop-color="#8E2EEF"/>
<stop offset="1" stop-color="#FF4ACC"/>
</linearGradient>
<linearGradient id="paint12_linear_744_559" x1="49.5956" y1="51.4752" x2="10.7367" y2="4.73762" gradientUnits="userSpaceOnUse">
<stop stop-color="#8E2EEF"/>
<stop offset="1" stop-color="#FF4ACC"/>
</linearGradient>
<linearGradient id="paint13_linear_744_559" x1="49.5956" y1="51.4752" x2="10.7367" y2="4.73762" gradientUnits="userSpaceOnUse">
<stop stop-color="#8E2EEF"/>
<stop offset="1" stop-color="#FF4ACC"/>
</linearGradient>
<linearGradient id="paint14_linear_744_559" x1="49.5956" y1="51.4752" x2="10.7367" y2="4.73762" gradientUnits="userSpaceOnUse">
<stop stop-color="#8E2EEF"/>
<stop offset="1" stop-color="#FF4ACC"/>
</linearGradient>
<linearGradient id="paint15_linear_744_559" x1="49.5956" y1="51.4752" x2="10.7367" y2="4.73762" gradientUnits="userSpaceOnUse">
<stop stop-color="#8E2EEF"/>
<stop offset="1" stop-color="#FF4ACC"/>
</linearGradient>
<linearGradient id="paint16_linear_744_559" x1="49.5956" y1="51.4752" x2="10.7367" y2="4.73762" gradientUnits="userSpaceOnUse">
<stop stop-color="#8E2EEF"/>
<stop offset="1" stop-color="#FF4ACC"/>
</linearGradient>
<linearGradient id="paint17_linear_744_559" x1="49.5956" y1="51.4752" x2="10.7367" y2="4.73762" gradientUnits="userSpaceOnUse">
<stop stop-color="#8E2EEF"/>
<stop offset="1" stop-color="#FF4ACC"/>
</linearGradient>
<linearGradient id="paint18_linear_744_559" x1="49.5956" y1="51.4752" x2="10.7367" y2="4.73762" gradientUnits="userSpaceOnUse">
<stop stop-color="#8E2EEF"/>
<stop offset="1" stop-color="#FF4ACC"/>
</linearGradient>
<linearGradient id="paint19_linear_744_559" x1="49.5956" y1="51.4752" x2="10.7367" y2="4.73762" gradientUnits="userSpaceOnUse">
<stop stop-color="#8E2EEF"/>
<stop offset="1" stop-color="#FF4ACC"/>
</linearGradient>
<linearGradient id="paint20_linear_744_559" x1="49.5956" y1="51.4752" x2="10.7367" y2="4.73762" gradientUnits="userSpaceOnUse">
<stop stop-color="#8E2EEF"/>
<stop offset="1" stop-color="#FF4ACC"/>
</linearGradient>
<linearGradient id="paint21_linear_744_559" x1="49.5956" y1="51.4752" x2="10.7367" y2="4.73762" gradientUnits="userSpaceOnUse">
<stop stop-color="#8E2EEF"/>
<stop offset="1" stop-color="#FF4ACC"/>
</linearGradient>
<linearGradient id="paint22_linear_744_559" x1="49.5956" y1="51.4752" x2="10.7367" y2="4.73762" gradientUnits="userSpaceOnUse">
<stop stop-color="#8E2EEF"/>
<stop offset="1" stop-color="#FF4ACC"/>
</linearGradient>
<linearGradient id="paint23_linear_744_559" x1="49.5956" y1="51.4752" x2="10.7367" y2="4.73762" gradientUnits="userSpaceOnUse">
<stop stop-color="#8E2EEF"/>
<stop offset="1" stop-color="#FF4ACC"/>
</linearGradient>
<linearGradient id="paint24_linear_744_559" x1="49.5956" y1="51.4752" x2="10.7367" y2="4.73762" gradientUnits="userSpaceOnUse">
<stop stop-color="#8E2EEF"/>
<stop offset="1" stop-color="#FF4ACC"/>
</linearGradient>
<linearGradient id="paint25_linear_744_559" x1="49.5956" y1="51.4752" x2="10.7367" y2="4.73762" gradientUnits="userSpaceOnUse">
<stop stop-color="#8E2EEF"/>
<stop offset="1" stop-color="#FF4ACC"/>
</linearGradient>
<linearGradient id="paint26_linear_744_559" x1="49.5956" y1="51.4752" x2="10.7367" y2="4.73762" gradientUnits="userSpaceOnUse">
<stop stop-color="#8E2EEF"/>
<stop offset="1" stop-color="#FF4ACC"/>
</linearGradient>
<linearGradient id="paint27_linear_744_559" x1="49.5956" y1="51.4752" x2="10.7367" y2="4.73762" gradientUnits="userSpaceOnUse">
<stop stop-color="#8E2EEF"/>
<stop offset="1" stop-color="#FF4ACC"/>
</linearGradient>
<linearGradient id="paint28_linear_744_559" x1="49.5956" y1="51.4752" x2="10.7367" y2="4.73762" gradientUnits="userSpaceOnUse">
<stop stop-color="#8E2EEF"/>
<stop offset="1" stop-color="#FF4ACC"/>
</linearGradient>
<linearGradient id="paint29_linear_744_559" x1="49.5956" y1="51.4752" x2="10.7367" y2="4.73762" gradientUnits="userSpaceOnUse">
<stop stop-color="#8E2EEF"/>
<stop offset="1" stop-color="#FF4ACC"/>
</linearGradient>
<linearGradient id="paint30_linear_744_559" x1="49.5956" y1="51.4752" x2="10.7367" y2="4.73762" gradientUnits="userSpaceOnUse">
<stop stop-color="#8E2EEF"/>
<stop offset="1" stop-color="#FF4ACC"/>
</linearGradient>
<linearGradient id="paint31_linear_744_559" x1="49.5956" y1="51.4752" x2="10.7367" y2="4.73762" gradientUnits="userSpaceOnUse">
<stop stop-color="#8E2EEF"/>
<stop offset="1" stop-color="#FF4ACC"/>
</linearGradient>
</defs>
</svg>
