<svg width="40" height="40" viewBox="0 0 40 40" fill="none" xmlns="http://www.w3.org/2000/svg">
<path d="M32.8385 20.1032C32.8385 17.6612 32.075 15.3239 30.7715 13.3055L35.9828 8.20481C38.5904 11.6079 40 15.7469 40 20.0007C40 24.4637 38.4803 28.5028 35.8758 31.7946L30.769 26.8034C32.1151 24.8197 32.8341 22.4917 32.8361 20.1104L32.8385 20.1032Z" fill="#B8D3F4"/>
<path d="M19.7904 7.10645C12.7493 7.11994 7.04436 12.8843 7.02962 20C7.04033 27.1186 12.7465 32.8874 19.7904 32.9008C22.3873 32.9008 24.7659 32.1321 26.7136 30.82L31.7955 35.9607C28.3313 38.5836 24.1192 40.0008 19.7906 40C8.86567 40 0 31.0403 0 20C0 8.96444 8.86583 7.52292e-05 19.7904 7.52292e-05C24.1398 -0.0120906 28.3673 1.45162 31.7955 4.15665L26.6045 9.40016C24.7636 7.87028 22.3896 7.10645 19.7904 7.10645Z" fill="black"/>
</svg>
